{
	"asset":{
		"generator":"Khronos glTF Blender I/O v3.5.30",
		"version":"2.0"
	},
	"scene":0,
	"scenes":[
		{
			"name":"Scene",
			"nodes":[
				21
			]
		}
	],
	"nodes":[
		{
			"name":"Bone.020",
			"rotation":[
				0.006885314825922251,
				-5.385559416026808e-05,
				0.0075218938291072845,
				0.9999480247497559
			],
			"scale":[
				1,
				1,
				0.9999999403953552
			],
			"translation":[
				8.344650268554688e-07,
				0.26149603724479675,
				-4.76837158203125e-07
			]
		},
		{
			"children":[
				0
			],
			"name":"Bone.019",
			"rotation":[
				-0.021009888499975204,
				-0.0036811737809330225,
				-0.01831732504069805,
				0.9996047019958496
			],
			"scale":[
				1,
				1.0000001192092896,
				1
			],
			"translation":[
				3.5762786865234375e-07,
				0.3322117030620575,
				4.76837158203125e-07
			]
		},
		{
			"children":[
				1
			],
			"name":"Bone.018",
			"rotation":[
				0.010919622145593166,
				0.003145978320389986,
				0.012637468054890633,
				0.9998555779457092
			],
			"scale":[
				0.9999999403953552,
				0.9999998807907104,
				0.9999999403953552
			],
			"translation":[
				0,
				0.3243671655654907,
				-1.0728836059570312e-06
			]
		},
		{
			"children":[
				2
			],
			"name":"Bone.017",
			"rotation":[
				-0.005438806023448706,
				-0.002849364187568426,
				0.0077414982952177525,
				0.999951183795929
			],
			"scale":[
				1,
				1,
				1.0000001192092896
			],
			"translation":[
				0,
				0.35581088066101074,
				0
			]
		},
		{
			"children":[
				3
			],
			"name":"Bone.016",
			"rotation":[
				0.004893824923783541,
				-0.0011546468595042825,
				-0.001145512331277132,
				0.9999867081642151
			],
			"scale":[
				0.9999999403953552,
				0.9999999403953552,
				0.9999999403953552
			],
			"translation":[
				-2.384185791015625e-07,
				0.39295026659965515,
				-2.384185791015625e-07
			]
		},
		{
			"children":[
				4
			],
			"name":"Bone.015",
			"rotation":[
				0.013415706343948841,
				0.002827403601258993,
				-0.013778768479824066,
				0.9998111128807068
			],
			"scale":[
				1,
				0.9999999403953552,
				0.9999999403953552
			],
			"translation":[
				-4.76837158203125e-07,
				0.4210048317909241,
				9.5367431640625e-07
			]
		},
		{
			"children":[
				5
			],
			"name":"Bone.014",
			"rotation":[
				0.000675768475048244,
				0.00019212345068808645,
				0.014912812039256096,
				0.99988853931427
			],
			"scale":[
				0.9999999403953552,
				1,
				1.0000001192092896
			],
			"translation":[
				0,
				0.43388116359710693,
				1.1920928955078125e-07
			]
		},
		{
			"children":[
				6
			],
			"name":"Bone.013",
			"rotation":[
				-0.0051526338793337345,
				0.000529517768882215,
				-0.013233941048383713,
				0.9998990297317505
			],
			"scale":[
				1,
				0.9999999403953552,
				1
			],
			"translation":[
				-4.76837158203125e-07,
				0.5124900937080383,
				0
			]
		},
		{
			"children":[
				7
			],
			"name":"Bone.012",
			"rotation":[
				-0.004086880479007959,
				0.0008188670035451651,
				0.0003158366307616234,
				0.999991238117218
			],
			"translation":[
				0,
				0.4797126054763794,
				1.1920928955078125e-07
			]
		},
		{
			"children":[
				8
			],
			"name":"Bone.011",
			"rotation":[
				-0.0070619406178593636,
				-0.00010377264698036015,
				-0.00637546693906188,
				0.9999547004699707
			],
			"scale":[
				1.0000001192092896,
				1,
				1.0000001192092896
			],
			"translation":[
				0,
				0.5679405331611633,
				0
			]
		},
		{
			"children":[
				9
			],
			"name":"Bone.010",
			"rotation":[
				-0.0005581186851486564,
				0.00025117082986980677,
				-0.0020382972434163094,
				0.9999977350234985
			],
			"translation":[
				0,
				0.5486708283424377,
				-1.1920928955078125e-07
			]
		},
		{
			"children":[
				10
			],
			"name":"Bone.009",
			"rotation":[
				-0.04724078252911568,
				-0.0017686175415292382,
				-0.006446210667490959,
				0.9988611340522766
			],
			"scale":[
				1,
				1.0000001192092896,
				0.9999999403953552
			],
			"translation":[
				-3.5762786865234375e-07,
				0.6103860139846802,
				-3.5762786865234375e-07
			]
		},
		{
			"children":[
				11
			],
			"name":"Bone.008",
			"rotation":[
				-0.013612120412290096,
				-0.0008368554408662021,
				0.024916967377066612,
				0.9995965361595154
			],
			"scale":[
				0.9999999403953552,
				1,
				0.9999998807907104
			],
			"translation":[
				0,
				0.6665070652961731,
				3.5762786865234375e-07
			]
		},
		{
			"children":[
				12
			],
			"name":"Bone.006",
			"rotation":[
				-0.04922762140631676,
				0.0002965423627756536,
				0.012251002714037895,
				0.9987124800682068
			],
			"translation":[
				5.960464477539062e-07,
				0.6290337443351746,
				0
			]
		},
		{
			"children":[
				13
			],
			"name":"Bone.005",
			"rotation":[
				-0.017580920830368996,
				0.0013831438263878226,
				0.02412402629852295,
				0.9995534420013428
			],
			"scale":[
				0.9999999403953552,
				1,
				1
			],
			"translation":[
				-3.5762786865234375e-07,
				0.6290186643600464,
				2.384185791015625e-07
			]
		},
		{
			"children":[
				14
			],
			"name":"Bone.004",
			"rotation":[
				-0.02963319420814514,
				0.0017901153769344091,
				0.027178026735782623,
				0.9991896748542786
			],
			"scale":[
				0.9999998807907104,
				0.9999999403953552,
				0.9999999403953552
			],
			"translation":[
				0,
				0.7929333448410034,
				-4.76837158203125e-07
			]
		},
		{
			"children":[
				15
			],
			"name":"Bone.003",
			"rotation":[
				-0.019728025421500206,
				-0.004011072218418121,
				-0.02504413016140461,
				0.9994836449623108
			],
			"scale":[
				0.9999999403953552,
				0.9999998807907104,
				1
			],
			"translation":[
				-2.384185791015625e-07,
				1.0465490818023682,
				0
			]
		},
		{
			"children":[
				16
			],
			"name":"Bone.002",
			"rotation":[
				-0.06016799062490463,
				0.012841873802244663,
				0.06465473771095276,
				0.9960094094276428
			],
			"scale":[
				1.0000001192092896,
				0.9999999403953552,
				1
			],
			"translation":[
				5.960464477539063e-08,
				1.1053496599197388,
				2.086162567138672e-07
			]
		},
		{
			"children":[
				17
			],
			"name":"Bone.001",
			"rotation":[
				-0.08817598223686218,
				0.0038186311721801758,
				-0.004782524425536394,
				0.9960861206054688
			],
			"scale":[
				1,
				1,
				0.9999999403953552
			],
			"translation":[
				-1.1920928955078125e-07,
				1.000000238418579,
				1.341104507446289e-07
			]
		},
		{
			"children":[
				18
			],
			"name":"Bone",
			"rotation":[
				-3.725290298461914e-09,
				1.1175870895385742e-08,
				-5.587935447692871e-09,
				1
			],
			"translation":[
				-1.4901161193847656e-07,
				1.1920928955078125e-07,
				1.6391277313232422e-07
			]
		},
		{
			"mesh":0,
			"name":"Cylinder.002",
			"skin":0
		},
		{
			"children":[
				20,
				19
			],
			"name":"Armature",
			"rotation":[
				0.8195503950119019,
				-0.5000354051589966,
				-0.03924959897994995,
				0.27705833315849304
			],
			"translation":[
				-1.2034026384353638,
				-2.133974075317383,
				1.7643940448760986
			]
		}
	],
	"materials":[
		{
			"doubleSided":true,
			"name":"Material.003",
			"pbrMetallicRoughness":{
				"baseColorFactor":[
					0.29535606503486633,
					0.0071443673223257065,
					0.8000000715255737,
					1
				],
				"metallicFactor":0,
				"roughnessFactor":0.5
			}
		}
	],
	"meshes":[
		{
			"name":"Cylinder.002",
			"primitives":[
				{
					"attributes":{
						"POSITION":0,
						"TEXCOORD_0":1,
						"NORMAL":2,
						"JOINTS_0":3,
						"WEIGHTS_0":4
					},
					"indices":5,
					"material":0
				}
			]
		}
	],
	"skins":[
		{
			"inverseBindMatrices":6,
			"joints":[
				19,
				18,
				17,
				16,
				15,
				14,
				13,
				12,
				11,
				10,
				9,
				8,
				7,
				6,
				5,
				4,
				3,
				2,
				1,
				0
			],
			"name":"Armature"
		}
	],
	"accessors":[
		{
			"bufferView":0,
			"componentType":5126,
			"count":2880,
			"max":[
				-0.8723419308662415,
				-1.3881858587265015,
				10.445635795593262
			],
			"min":[
				-8.387541770935059,
				-3.611360788345337,
				1.021723985671997
			],
			"type":"VEC3"
		},
		{
			"bufferView":1,
			"componentType":5126,
			"count":2880,
			"type":"VEC2"
		},
		{
			"bufferView":2,
			"componentType":5126,
			"count":2880,
			"type":"VEC3"
		},
		{
			"bufferView":3,
			"componentType":5121,
			"count":2880,
			"type":"VEC4"
		},
		{
			"bufferView":4,
			"componentType":5126,
			"count":2880,
			"type":"VEC4"
		},
		{
			"bufferView":5,
			"componentType":5123,
			"count":4320,
			"type":"SCALAR"
		},
		{
			"bufferView":6,
			"componentType":5126,
			"count":20,
			"type":"MAT4"
		}
	],
	"bufferViews":[
		{
			"buffer":0,
			"byteLength":34560,
			"byteOffset":0,
			"target":34962
		},
		{
			"buffer":0,
			"byteLength":23040,
			"byteOffset":34560,
			"target":34962
		},
		{
			"buffer":0,
			"byteLength":34560,
			"byteOffset":57600,
			"target":34962
		},
		{
			"buffer":0,
			"byteLength":11520,
			"byteOffset":92160,
			"target":34962
		},
		{
			"buffer":0,
			"byteLength":46080,
			"byteOffset":103680,
			"target":34962
		},
		{
			"buffer":0,
			"byteLength":8640,
			"byteOffset":149760,
			"target":34963
		},
		{
			"buffer":0,
			"byteLength":1280,
			"byteOffset":158400
		}
	],
	"buffers":[
		{
			"byteLength":159680,
			"uri":"data:application/octet-stream;base64,"
		}
	]
}
